# xmcd
#
# Track frame offsets:
#	182
#	11810
#	25620
#	38420
#	56312
#	71665
#	88197
#	98570
#	109867
#	121960
#
# Disc length: 1783 seconds
#
# Revision: 1
# Processed by: cddbd v1.4PL0 Copyright (c) Steve Scherf et al.
# Submitted via: audiograbber 1.80.04
#
DISCID=7306f50a
DTITLE=Oneil Devost - La Récesion
DYEAR=1900
DGENRE=Bass
TTITLE0=La Récession
TTITLE1=Vivre D'amour Et D'eau Fraîche
TTITLE2=Les Batteurs De Femmes
TTITLE3=Où Est L'amour
TTITLE4=Même Si On S'est Quitté
TTITLE5=Les Copieurs De Cassettes
TTITLE6=Y'Parait
TTITLE7=Regarde Autour De Toi
TTITLE8=Je Te Remercie Seigneur
TTITLE9=L'immigration
EXTD=
EXTT0=
EXTT1=
EXTT2=
EXTT3=
EXTT4=
EXTT5=
EXTT6=
EXTT7=
EXTT8=
EXTT9=
PLAYORDER=
